# xmcd
#
# Track frame offsets:
#	150
#	13417
#	29024
#	40552
#	54771
#	67533
#	77997
#	89187
#	103433
#	115593
#	131856
#	142690
#	152313
#	165404
#
# Disc length: 2287
#
# Revision: 1
# Processed by: cddbd v1.5.1PL0 Copyright (c) Steve Scherf et al.
# Submitted via: CDex 1.50
# Normalized: r0:DSETVAR2,TDELIM( - )
#
DISCID=ad08ed0e
DTITLE=Various Artist - Swinging Christmas
DYEAR=2004
DGENRE=Jazz
TTITLE0=Louis Armstrong - Cool Yude
TTITLE1=Eartha Kitt - Santa Baby
TTITLE2=Molly Bee - I Saw Mommy Kissing Santa Claus
TTITLE3=The Andrews Sisters - The Chrismas Tree Angel
TTITLE4=Ray  Charles - The Snow Is Falling
TTITLE5=Peggy Lee - Ring Those Christmas Bells
TTITLE6=The Moonglows - Just A Lonely Christmas
TTITLE7=Doris Day With the Norman Luboff Choir - Christmas Story
TTITLE8=Bing Crosby - Sleigh Ride
TTITLE9=Glenn Miller And His Orchestra - Cradle Song
TTITLE10=Dinah Washington - Silent Night
TTITLE11=Nat King Cole - Mrs Santa Claus
TTITLE12=Dean Martin - The Christmas Blues
TTITLE13=Frank Sinatra - Winter Wonderland
EXTD=YEAR: 2004
EXTT0=
EXTT1=
EXTT2=
EXTT3=
EXTT4=
EXTT5=
EXTT6=
EXTT7=
EXTT8=
EXTT9=
EXTT10=
EXTT11=
EXTT12=
EXTT13=
PLAYORDER=
